<?xml version="1.0" encoding="UTF-8"?>
<svg id="Capa_2" xmlns="http://www.w3.org/2000/svg" version="1.1" viewBox="0 0 251.8 81.5">
  <!-- Generator: Adobe Illustrator 30.1.0, SVG Export Plug-In . SVG Version: 2.1.1 Build 136)  -->
  <defs>
    <style>
      .st0 {
        fill: #fff;
      }
    </style>
  </defs>
  <g id="Layer_1">
    <g>
      <path class="st0" d="M36.4,79.8l-1.2-3.3c-2.1.8-4.2,1.2-6.4,1.4v-25.2h-1.7c-13,0-23.5-10.6-23.5-23.6s4.9-16.8,12.6-20.9l-1.6-3.1C5.6,9.8,0,19,0,29.1c0,14.3,11.2,26.1,25.3,27v25.3h1.7c3.2,0,6.4-.6,9.4-1.7h0Z"/>
      <path class="st0" d="M35.1,25.5V.2C21.1.2,9.8,11.5,9.8,25.5s11.3,25.3,25.3,25.3v25.3c14,0,25.3-11.3,25.3-25.3s-11.3-25.3-25.3-25.3Z"/>
    </g>
    <g>
      <path class="st0" d="M84.6,18.1c0-4.6,3.2-6.7,6.7-6.7s6.5,2.4,6.5,8.8h11.7C110.1,10.4,107,0,90.6,0s-19.8,6.2-19.8,18.1c0,21.2,27,18,28.3,30.3.4,3.5-1.3,7.5-7.9,7.5s-7.2-3.4-7.2-11.7h-13.2c-.3,16.5,6.8,22.3,20.5,22.3s22.1-5.3,22.1-17.2c0-22.6-28.9-18.9-28.9-31.3Z"/>
      <path class="st0" d="M142.3,17.6c-8.9,0-10.9,7.9-10.9,7.9V0h-12.8v66.6h12.8v-32.8c.3-3.3,2.3-6.3,7-6.3s7,3.8,7.1,7.5v31.6h12.7v-34.2c0-9.2-7.3-14.9-15.9-14.9h0Z"/>
      <rect class="st0" x="164.9" y="19.2" width="12.7" height="47.4"/>
      <path class="st0" d="M164.9,19.2c7,0,12.7-.9,12.7-7.9V.3h-12.7s0,18.9,0,18.9Z"/>
      <path class="st0" d="M235,30.5v-11.3h-17.5s9.4-1.8,9.4-8V0h-12.8v19.2h-15v-.3c0-6.2,4-6.2,8.1-6.2V0h-8.1C189.8,0,186.2,7.9,186.2,16.5v2.7h-3.8v11.3h3.8v36.1h12.8v-28.8c0-7.3-9.4-7.3-9.4-7.3h24.4v19.6c0,8.5,3.5,16.5,12.8,16.5h8.1v-12.8c-4,0-8.1,0-8.1-6.1v-17.2s8.1,0,8.1,0Z"/>
    </g>
  </g>
</svg>