<?xml version="1.0" encoding="UTF-8"?>
<svg id="Capa_2" data-name="Capa 2" xmlns="http://www.w3.org/2000/svg" viewBox="0 0 327.74 162.45">
  <defs>
    <style>
      .cls-1 {
        fill: #f540ff;
      }

      .cls-2 {
        fill: #001f6d;
      }
    </style>
  </defs>
  <g id="Layer_1" data-name="Layer 1">
    <g>
      <g>
        <path class="cls-2" d="M24.93,32.79c0-8.24,5.81-12.18,12.18-12.18,8.06,0,11.8,4.31,11.8,15.92h21.17C71.21,18.92,65.59,0,35.8,0,17.07,0,.02,11.24.02,32.79.02,71.19,48.91,65.38,51.35,87.68c.75,6.37-2.44,13.68-14.24,13.68-8.24,0-13.11-6.18-13.11-21.17H.02c-.56,29.98,12.36,40.47,37.09,40.47,21.73,0,40.09-9.56,40.09-31.1,0-41.03-52.27-34.28-52.27-56.77Z"/>
        <path class="cls-2" d="M129.42,31.86c-16.13,0-19.77,14.28-19.77,14.28V0h-23.25v120.65h23.25v-59.5c.55-6.04,4.21-11.35,12.63-11.35,9.34,0,12.63,6.96,12.82,13.55v57.3h23.07v-61.88c0-16.66-13.18-26.91-28.74-26.91Z"/>
        <rect class="cls-2" x="170.43" y="34.79" width="23.07" height="85.87"/>
        <path class="cls-2" d="M170.43,34.79c12.74,0,23.07-1.57,23.07-14.31V.5h-23.07v34.28Z"/>
        <path class="cls-2" d="M297.3,55.29v-20.51h-31.77s17.12-3.21,17.12-14.41V0h-23.25v34.79h-27.09v-.55c0-11.17,7.32-11.17,14.65-11.17V0h-14.65c-16.84,0-23.25,14.28-23.25,29.84v4.94h-6.96v20.51h6.96v65.36h23.25v-52.06c0-13.3-17.06-13.3-17.06-13.3h44.16v35.52c0,15.38,6.41,29.84,23.25,29.84h14.65v-23.25c-7.32,0-14.65,0-14.65-10.99v-31.12h14.65Z"/>
      </g>
      <g>
        <path class="cls-1" d="M307.64,5.26c0,.25-.04.47-.12.67-.08.2-.2.37-.36.51-.16.14-.36.25-.6.33s-.52.11-.84.11h-4.72v-3.19h4.72c.64,0,1.12.14,1.44.41.32.28.48.66.48,1.16M311.34,5.24c0-.82-.13-1.55-.39-2.2-.26-.65-.66-1.2-1.19-1.65-.53-.45-1.2-.8-2.01-1.03C306.94.12,305.98,0,304.88,0h-7.58v14.37h3.69v-3.82h3.91c1.1,0,2.06-.12,2.87-.39.81-.27,1.48-.64,2.01-1.11.53-.47.92-1.04,1.18-1.69.26-.65.39-1.36.39-2.12"/>
        <polygon class="cls-1" points="312.54 0 312.54 14.37 316.22 14.37 316.22 5.76 324.2 14.37 327.74 14.37 327.74 13 316.08 0 312.54 0"/>
        <path class="cls-1" d="M327.73,0h-7.2v2.84h4.37v4.36h2.84V0h0ZM327.23,2.33v4.36h-1.82V2.33h-4.36V.51h6.18v1.82Z"/>
      </g>
      <g>
        <path class="cls-1" d="M170.43,162.45v-24.66h3.45v21.49h11.45v3.17h-14.9Z"/>
        <path class="cls-1" d="M191,162.45l9.93-24.66h3.7l9.93,24.66h-3.7l-2.64-6.59h-10.89l-2.64,6.59h-3.7ZM198.54,152.76h8.49l-4.23-10.6-4.26,10.6Z"/>
        <path class="cls-1" d="M227.15,162.45v-21.49h-7.71v-3.17h18.92v3.17h-7.71v21.49h-3.49Z"/>
        <path class="cls-1" d="M241.66,162.45l9.93-24.66h3.7l9.93,24.66h-3.7l-2.64-6.59h-10.89l-2.64,6.59h-3.7ZM249.2,152.76h8.49l-4.23-10.6-4.26,10.6Z"/>
        <path class="cls-1" d="M273.61,162.45v-24.66h3.66l8.17,12.08,8.14-12.08h3.66v24.66h-3.45v-19.09l-8.38,12.37-8.35-12.33v19.06h-3.45Z"/>
      </g>
    </g>
  </g>
</svg>