<?xml version="1.0" encoding="UTF-8"?>
<svg id="Capa_2" data-name="Capa 2" xmlns="http://www.w3.org/2000/svg" viewBox="0 0 93.88 126.31">
  <defs>
    <style>
      .cls-1 {
        fill: #f540ff;
      }

      .cls-2 {
        fill: #fff;
      }
    </style>
  </defs>
  <g id="Layer_1" data-name="Layer 1">
    <g>
      <path class="cls-1" d="M56.54,123.72l-1.87-5.06c-3.22,1.19-6.57,1.91-9.99,2.16v-39.19h-2.69c-20.17-.06-36.59-16.51-36.59-36.68,0-13.68,7.53-26.13,19.66-32.49l-2.51-4.78C8.64,14.97,0,29.25,0,44.94c0,22.24,17.39,40.53,39.28,41.98v39.39h2.7c5,0,9.9-.87,14.56-2.59Z"/>
      <path class="cls-2" d="M54.6,39.3V0C32.85,0,15.22,17.63,15.22,39.38s17.58,39.32,39.28,39.37v39.3c21.75,0,39.38-17.63,39.38-39.38s-17.58-39.32-39.28-39.37Z"/>
    </g>
  </g>
</svg>