<?xml version="1.0" encoding="UTF-8"?>
<svg id="Capa_2" data-name="Capa 2" xmlns="http://www.w3.org/2000/svg" viewBox="0 0 104.62 65.45">
  <defs>
    <style>
      .cls-1 {
        fill: #f540ff;
      }

      .cls-2 {
        fill: #fff;
      }
    </style>
  </defs>
  <g id="Layer_1" data-name="Layer 1">
    <g>
      <g>
        <path class="cls-2" d="M13.53,17.78c0-4.47,3.15-6.61,6.61-6.61,4.37,0,6.4,2.34,6.4,8.64h11.48c.61-9.55-2.44-19.82-18.6-19.82C9.26,0,0,6.1,0,17.78,0,38.62,26.53,35.47,27.85,47.56c.41,3.46-1.32,7.42-7.72,7.42-4.47,0-7.11-3.35-7.11-11.48H0c-.3,16.26,6.71,21.95,20.12,21.95,11.79,0,21.75-5.18,21.75-16.87,0-22.26-28.35-18.6-28.35-30.79Z"/>
        <path class="cls-2" d="M89.33,29.99v-11.12h-17.23s9.29-1.74,9.29-7.82V0h-12.61v18.87h-14.7v-.3c0-6.06,3.97-6.06,7.94-6.06V0h-7.94c-9.14,0-12.61,7.75-12.61,16.19v2.68h-3.77v11.12h3.77v35.45h12.61v-28.24c0-7.21-9.25-7.21-9.25-7.21h23.95v19.27c0,8.34,3.48,16.19,12.61,16.19h7.95v-12.61c-3.97,0-7.95,0-7.95-5.96v-16.88h7.95Z"/>
      </g>
      <g>
        <path class="cls-1" d="M93.72,2.85c0,.13-.02.25-.07.36-.04.11-.11.2-.2.28-.09.08-.2.14-.33.18s-.28.06-.46.06h-2.56v-1.73h2.56c.35,0,.61.07.78.22.17.15.26.36.26.63M95.73,2.84c0-.44-.07-.84-.21-1.19-.14-.35-.36-.65-.65-.9-.29-.24-.65-.43-1.09-.56C93.34.06,92.82,0,92.22,0h-4.11v7.79h2v-2.07h2.12c.6,0,1.12-.07,1.56-.21.44-.14.8-.35,1.09-.6.29-.26.5-.56.64-.92.14-.35.21-.74.21-1.15"/>
        <polygon class="cls-1" points="96.37 0 96.37 7.79 98.37 7.79 98.37 3.13 102.7 7.79 104.62 7.79 104.62 7.05 98.3 0 96.37 0"/>
        <path class="cls-1" d="M104.62,0h-3.91v1.54h2.37v2.37h1.54V0h0ZM104.34,1.26v2.36h-.99V1.26h-2.36V.28h3.35v.99Z"/>
      </g>
    </g>
  </g>
</svg>