<?xml version="1.0" encoding="UTF-8"?>
<svg id="Capa_2" data-name="Capa 2" xmlns="http://www.w3.org/2000/svg" viewBox="0 0 251.77 81.47">
  <defs>
    <style>
      .cls-1 {
        fill: #fff;
      }
    </style>
  </defs>
  <g id="Layer_1" data-name="Layer 1">
    <g>
      <path class="cls-1" d="M36.38,79.81l-1.2-3.26c-2.07.76-4.23,1.23-6.43,1.39v-25.22h-1.73c-12.98-.04-23.54-10.62-23.54-23.6,0-8.8,4.85-16.81,12.65-20.91l-1.61-3.07C5.56,9.83,0,19.02,0,29.11c0,14.31,11.19,26.08,25.27,27.01v25.35h1.74c3.22,0,6.37-.56,9.37-1.67Z"/>
      <path class="cls-1" d="M35.13,25.48V.19c-13.99,0-25.34,11.34-25.34,25.34s11.31,25.3,25.27,25.34v25.29c13.99,0,25.34-11.34,25.34-25.34s-11.31-25.3-25.27-25.34Z"/>
    </g>
    <g>
      <g>
        <path class="cls-1" d="M84.58,18.1c0-4.55,3.21-6.72,6.72-6.72,4.45,0,6.52,2.38,6.52,8.79h11.69c.62-9.72-2.48-20.17-18.93-20.17-10.34,0-19.76,6.21-19.76,18.1,0,21.2,27,18,28.34,30.31.41,3.52-1.34,7.55-7.86,7.55-4.55,0-7.24-3.41-7.24-11.69h-13.24c-.31,16.55,6.83,22.34,20.48,22.34,12,0,22.14-5.28,22.14-17.17,0-22.65-28.86-18.93-28.86-31.34Z"/>
        <path class="cls-1" d="M142.27,17.59c-8.91,0-10.92,7.88-10.92,7.88V0h-12.84v66.61h12.84v-32.85c.3-3.34,2.32-6.27,6.97-6.27,5.16,0,6.97,3.84,7.08,7.48v31.64h12.74v-34.17c0-9.2-7.28-14.86-15.87-14.86Z"/>
        <rect class="cls-1" x="164.91" y="19.21" width="12.74" height="47.41"/>
        <path class="cls-1" d="M164.91,19.21c7.03,0,12.74-.86,12.74-7.9V.28h-12.74v18.93Z"/>
        <path class="cls-1" d="M234.96,30.53v-11.32h-17.54s9.45-1.77,9.45-7.96V0h-12.84v19.21h-14.96v-.3c0-6.17,4.04-6.17,8.09-6.17V0h-8.09c-9.3,0-12.84,7.88-12.84,16.48v2.73h-3.84v11.32h3.84v36.09h12.84v-28.75c0-7.34-9.42-7.34-9.42-7.34h24.38v19.61c0,8.49,3.54,16.48,12.84,16.48h8.09v-12.84c-4.04,0-8.09,0-8.09-6.07v-17.18h8.09Z"/>
      </g>
      <g>
        <path class="cls-1" d="M240.67,2.9c0,.14-.02.26-.07.37-.04.11-.11.21-.2.28-.09.08-.2.14-.33.18s-.29.06-.46.06h-2.61v-1.76h2.61c.35,0,.62.08.8.23.18.15.27.37.27.64M242.71,2.89c0-.45-.07-.85-.22-1.21-.14-.36-.36-.66-.66-.91-.29-.25-.67-.44-1.11-.57-.45-.13-.97-.2-1.58-.2h-4.18v7.93h2.03v-2.11h2.16c.61,0,1.14-.07,1.58-.22.45-.15.82-.35,1.11-.61.29-.26.51-.57.65-.93.14-.36.21-.75.21-1.17"/>
        <polygon class="cls-1" points="243.37 0 243.37 7.93 245.41 7.93 245.41 3.18 249.81 7.93 251.77 7.93 251.77 7.18 245.33 0 243.37 0"/>
        <path class="cls-1" d="M251.76,0h-3.98v1.57h2.41v2.41h1.57V0h0ZM251.48,1.29v2.41h-1.01V1.29h-2.41V.28h3.41v1.01Z"/>
      </g>
    </g>
  </g>
</svg>