<?xml version="1.0" encoding="UTF-8"?>
<svg id="Capa_2" data-name="Capa 2" xmlns="http://www.w3.org/2000/svg" viewBox="0 0 390.98 309.97">
  <defs>
    <style>
      .cls-1 {
        fill: none;
        stroke: #FFFFFF;
        stroke-miterlimit: 10;
        stroke-width: 0.5px;
      }
    </style>
  </defs>
  <g id="Layer_1" data-name="Layer 1">
    <path class="cls-1" d="M2.28,306.15c4.41-18.87,11.53-36.7,20.89-53.06,11.55-20.18,26.54-38.12,44.18-53.06-6.09,26.05-17.3,50.1-32.53,71.07-9.41,12.96-20.34,24.72-32.54,35.05ZM356.11,271.16c-15.26-21-26.51-45.12-32.6-71.21-34.55-29.2-79.24-46.82-128.04-46.82s-93.56,17.65-128.12,46.89c3.41-14.57,5.22-29.77,5.22-45.38,0-16.99-2.14-33.49-6.15-49.23-16.79-14.39-31.14-31.54-42.36-50.74C14.9,39.02,7.82,21.98,3.23,3.95c11.81,10.13,22.42,21.62,31.59,34.24,14.48,19.94,25.32,42.68,31.59,67.24,34.7,29.74,79.78,47.71,129.06,47.71s94.3-17.93,128.97-47.62c6.27-24.63,17.15-47.4,31.66-67.38,9.18-12.63,19.81-24.14,31.66-34.27-4.6,18.06-11.68,35.13-20.85,50.82-11.25,19.24-25.64,36.42-42.47,50.82-4.01,15.72-6.13,32.18-6.13,49.14,0,15.59,1.79,30.76,5.2,45.3,17.67,14.95,32.71,32.94,44.27,53.15,9.39,16.39,16.5,34.25,20.92,53.15-12.22-10.34-23.17-22.12-32.6-35.08Z"/>
  </g>
</svg>
