<?xml version="1.0" encoding="UTF-8"?>
<svg id="Capa_2" data-name="Capa 2" xmlns="http://www.w3.org/2000/svg" viewBox="0 0 60.41 81.28">
  <defs>
    <style>
      .cls-1 {
        fill: #1534dc;
      }
    </style>
  </defs>
  <g id="Layer_1" data-name="Layer 1">
    <g>
      <path class="cls-1" d="M36.38,79.61l-1.2-3.26c-2.07.76-4.23,1.23-6.43,1.39v-25.22h-1.73c-12.98-.04-23.54-10.62-23.54-23.6,0-8.8,4.85-16.81,12.65-20.91l-1.61-3.07C5.56,9.63,0,18.82,0,28.92c0,14.31,11.19,26.08,25.27,27.01v25.35h1.74c3.22,0,6.37-.56,9.37-1.67Z"/>
      <path class="cls-1" d="M35.13,25.29V0C21.14,0,9.8,11.34,9.8,25.34s11.31,25.3,25.27,25.34v25.29c13.99,0,25.34-11.34,25.34-25.34s-11.31-25.3-25.27-25.34Z"/>
    </g>
  </g>
</svg>